<?xml version="1.0" encoding="UTF-8" standalone="no"?>
<svg
   width="443"
   height="303"
   viewBox="0 0 443 303"
   fill="none"
   version="1.1"
   id="svg26"
   sodipodi:docname="curlec-logo-dark.svg"
   inkscape:version="1.2.1 (9c6d41e, 2022-07-14)"
   xmlns:inkscape="http://www.inkscape.org/namespaces/inkscape"
   xmlns:sodipodi="http://sodipodi.sourceforge.net/DTD/sodipodi-0.dtd"
   xmlns="http://www.w3.org/2000/svg"
   xmlns:svg="http://www.w3.org/2000/svg">
  <defs
     id="defs30" />
  <sodipodi:namedview
     id="namedview28"
     pagecolor="#505050"
     bordercolor="#eeeeee"
     borderopacity="1"
     inkscape:showpageshadow="0"
     inkscape:pageopacity="0"
     inkscape:pagecheckerboard="0"
     inkscape:deskcolor="#505050"
     showgrid="false"
     inkscape:zoom="2.8126411"
     inkscape:cx="221.5"
     inkscape:cy="151.99238"
     inkscape:window-width="1920"
     inkscape:window-height="1027"
     inkscape:window-x="0"
     inkscape:window-y="25"
     inkscape:window-maximized="1"
     inkscape:current-layer="svg26" />
  <path
     d="m 51.438751,159.3996 c -8.541936,0 -15.936424,-1.6673 -22.185976,-5.00041 -6.249404,-3.33311 -11.040515,-8.02017 -14.373629,-14.06116 -3.22876,-6.14446 -4.843288,-13.38419 -4.843288,-21.71623 0,-8.33205 1.770763,-15.62352 5.311993,-21.872919 3.541378,-6.249404 8.488873,-11.093136 14.842335,-14.529717 6.35361,-3.541526 13.800422,-5.312289 22.342359,-5.312289 5.624168,0 11.144869,0.885381 16.560625,2.656144 5.415756,1.770763 9.79093,4.165284 13.124044,7.18652 L 75.96781,103.15496 C 72.843108,100.65402 69.405049,98.728056 65.655111,97.374117 61.906651,95.915233 58.26018,95.18653 54.718654,95.18653 c -6.352871,0 -11.353282,1.925963 -14.997979,5.78085 -3.645584,3.8534 -5.468229,9.58251 -5.468229,17.18586 0,7.70681 1.770616,13.48765 5.311994,17.34106 3.645732,3.85488 8.696397,5.78085 15.154214,5.78085 3.541526,0 7.187997,-0.67697 10.936457,-2.03091 3.749938,-1.35394 7.187997,-3.33312 10.312699,-5.93605 l 6.249404,16.40395 c -3.438059,3.02123 -7.9167,5.41575 -13.437401,7.18652 -5.519223,1.66729 -11.30007,2.50094 -17.341062,2.50094 z m 67.929009,0 c -9.89439,0 -17.2908,-2.76109 -22.18479,-8.28179 -4.895465,-5.51922 -7.343197,-13.85275 -7.343197,-24.99762 V 78.937783 h 23.590467 v 47.652447 c 0,4.89546 0.99033,8.54046 2.9695,10.93646 2.08264,2.29105 5.25908,3.43658 9.52931,3.43658 4.79199,0 8.69713,-1.66582 11.71837,-4.99894 3.01976,-3.33311 4.53037,-7.76002 4.53037,-13.28072 V 78.937783 h 23.74863 v 79.211347 h -22.96671 v -15.78019 l 2.03091,0.15668 c -2.29254,5.5207 -5.67738,9.73919 -10.15602,12.65548 -4.3737,2.81135 -9.52931,4.2185 -15.46684,4.2185 z m 59.43881,-1.25047 v -56.55652 c 0,-3.749936 -0.10346,-7.499874 -0.31188,-11.249812 -0.10494,-3.853405 -0.41682,-7.655076 -0.93859,-11.405015 h 22.18627 l 2.49947,20.9358 -2.49947,-1.250472 c 1.249,-7.081574 4.2185,-12.447075 8.90555,-16.092068 4.79052,-3.644993 10.20776,-5.46749 16.24875,-5.46749 1.77076,0 3.33311,0.155201 4.68705,0.468558 1.45741,0.311879 2.70788,0.676969 3.74846,1.093793 l -0.1552,21.559556 c -3.85488,-1.770761 -7.70829,-2.656143 -11.56169,-2.656143 -4.27023,0 -7.81176,0.781915 -10.62458,2.344266 -2.70788,1.562347 -4.84225,3.801667 -6.40461,6.717957 -1.45888,2.81283 -2.18758,6.19768 -2.18758,10.15455 v 41.40304 z m 65.64387,0 V 43.159945 h 23.59047 V 158.14913 Z m 106.30343,-8.43699 c -3.8534,3.02123 -8.54046,5.41575 -14.06116,7.18652 -5.51922,1.66729 -11.09165,2.50094 -16.71582,2.50094 -8.85382,0 -16.50889,-1.6673 -22.96671,-5.00041 -6.35435,-3.33311 -11.24981,-8.0719 -14.6864,-14.21784 -3.43805,-6.14446 -5.15561,-13.43592 -5.15561,-21.87291 0,-8.12364 1.66582,-15.31016 4.99894,-21.559559 3.33311,-6.249404 7.86348,-11.093136 13.5926,-14.529717 5.83258,-3.541526 12.60375,-5.312289 20.31056,-5.312289 7.39493,0 13.80101,1.665818 19.21677,4.998932 5.41576,3.229647 9.58252,7.864967 12.49881,13.905959 2.91629,5.936044 4.37517,13.019094 4.37517,21.247674 v 3.43659 h -54.21373 l 0.31188,-11.7169 h 39.84069 l -6.0942,4.84226 c 0.10495,-6.66476 -1.19726,-11.66517 -3.90514,-14.998279 -2.60441,-3.436581 -6.40608,-5.155611 -11.40501,-5.155611 -5.41576,0 -9.63425,1.979175 -12.65549,5.937525 -2.91629,3.853405 -4.3737,9.529305 -4.3737,17.029185 0,8.85381 1.71756,15.25842 5.15561,19.21677 3.54153,3.95835 8.90555,5.93752 16.09207,5.93752 4.16529,0 8.28032,-0.67697 12.34213,-2.03091 4.06182,-1.35393 7.81176,-3.28138 11.24834,-5.78084 z m 50.59091,9.68746 c -8.54194,0 -15.93687,-1.6673 -22.18627,-5.00041 -6.24941,-3.33311 -11.03993,-8.02017 -14.37304,-14.06116 -3.22965,-6.14446 -4.84373,-13.38419 -4.84373,-21.71623 0,-8.33205 1.77076,-15.62352 5.31229,-21.872919 3.54152,-6.249404 8.48872,-11.093136 14.84159,-14.529717 6.35435,-3.541526 13.80102,-5.312289 22.34295,-5.312289 5.62417,0 11.14487,0.885381 16.56063,2.656144 5.41575,1.770763 9.79093,4.165284 13.12404,7.18652 l -6.2494,16.405421 c -3.1247,-2.50094 -6.56276,-4.426904 -10.3127,-5.780843 -3.74846,-1.458884 -7.39493,-2.187587 -10.93646,-2.187587 -6.35287,0 -11.35328,1.925963 -14.99827,5.78085 -3.645,3.8534 -5.46749,9.58251 -5.46749,17.18586 0,7.70681 1.77076,13.48765 5.31081,17.34106 3.64647,3.85488 8.69714,5.78085 15.15495,5.78085 3.54153,0 7.188,-0.67697 10.93646,-2.03091 3.74994,-1.35394 7.188,-3.33312 10.3127,-5.93605 l 6.2494,16.40395 c -3.43806,3.02123 -7.9167,5.41575 -13.4374,7.18652 -5.51922,1.66729 -11.30007,2.50094 -17.34106,2.50094 z"
     fill="#0c2651"
     id="path2"
     style="stroke-width:1.4781" />
  <path
     d="m 185.71817,215.34714 c 1.11005,-4.15346 0.65184,-7.33137 -1.37464,-9.53374 -2.02499,-2.20385 -5.56652,-3.31242 -10.6231,-3.3272 h -19.37492 l -11.67994,43.82269 h 9.38149 l 4.72401,-17.73867 h 6.19471 c 1.13223,-0.0562 2.26149,0.17441 3.28138,0.67253 0.41387,0.25867 0.75975,0.61341 1.00659,1.03467 0.24684,0.42126 0.38874,0.89573 0.41239,1.38202 l 1.6939,14.64945 h 10.05255 L 177.7719,232.7015 c -0.32518,-3.03749 -1.72198,-4.82599 -4.14754,-5.3655 2.93402,-0.81 5.61086,-2.35609 7.77776,-4.49342 2.09298,-2.06047 3.58439,-4.65158 4.31605,-7.49544 z m -8.98094,0.1552 c -0.405,1.79737 -1.5047,3.35972 -3.06114,4.34561 -1.4781,0.93268 -3.63612,1.39089 -6.37948,1.39089 h -8.70748 l 3.05967,-11.44935 h 8.71635 c 2.73448,0 4.61315,0.4656 5.64782,1.38941 1.03467,0.92381 1.25638,2.38713 0.72426,4.32344 z"
     fill="#0c2651"
     id="path4"
     style="stroke-width:1.4781" />
  <path
     d="m 212.80138,214.98057 -1.18987,4.4343 c -0.49516,-1.58452 -1.54461,-2.93846 -2.9562,-3.8135 -1.6466,-0.98885 -3.54448,-1.47662 -5.46305,-1.40419 -2.69162,0 -5.33742,0.70357 -7.6743,2.03978 -2.54233,1.4574 -4.73878,3.44988 -6.4386,5.83849 -1.87127,2.58224 -3.24295,5.49409 -4.0426,8.58184 -0.83956,2.74779 -1.01693,5.65521 -0.51733,8.48429 0.37987,2.23489 1.57565,4.24954 3.35528,5.65521 1.93483,1.38202 4.27762,2.07525 6.65293,1.96587 2.12107,0.004 4.21849,-0.44934 6.14741,-1.33176 1.9304,-0.88095 3.645,-2.16985 5.02998,-3.77655 l -1.22683,4.62793 h 9.14353 l 8.33943,-31.30171 z m -4.15346,15.52152 c -0.56611,2.54825 -1.82397,4.89103 -3.6376,6.7697 -0.78044,0.76417 -1.70573,1.36576 -2.72118,1.76928 -1.01546,0.40352 -2.10038,0.60159 -3.1927,0.5809 -2.328,0 -3.89627,-0.73905 -4.73878,-2.31323 -0.84252,-1.57418 -0.86469,-3.76915 -0.0961,-6.65145 0.58533,-2.57189 1.86388,-4.93389 3.69673,-6.83029 0.78339,-0.78635 1.71459,-1.41011 2.74187,-1.83285 1.02728,-0.42273 2.12846,-0.63558 3.23852,-0.62819 2.27627,0 3.82827,0.79078 4.62793,2.36496 0.79817,1.57417 0.87947,3.80019 0.0961,6.76378 z"
     fill="#0c2651"
     id="path6"
     style="stroke-width:1.4781" />
  <path
     d="m 254.58429,214.99979 h -26.33973 l -1.9437,7.30329 h 15.33233 l -20.1598,17.58347 -1.72199,6.4519 h 27.20294 l 1.94518,-7.30181 h -16.44829 l 20.4909,-17.83475 z"
     fill="#0c2651"
     id="path8"
     style="stroke-width:1.4781" />
  <path
     d="m 283.39097,216.14975 c -2.44625,-1.39828 -5.2369,-2.07969 -8.05121,-1.96587 -3.17495,-0.0281 -6.31739,0.64297 -9.20264,1.96587 -2.80839,1.30812 -5.27534,3.24886 -7.20869,5.66851 -2.01909,2.5379 -3.47797,5.47636 -4.2791,8.6188 -0.86321,2.79508 -0.96963,5.76754 -0.3104,8.61732 0.60454,2.36643 2.10777,4.40178 4.19041,5.67737 2.1196,1.30517 4.83043,1.95849 8.1325,1.95849 3.14096,0.0266 6.24793,-0.6415 9.09918,-1.95849 2.79952,-1.30959 5.25465,-3.25329 7.17026,-5.67737 2.02352,-2.53642 3.48536,-5.47341 4.28797,-8.61732 0.86469,-2.79509 0.96963,-5.7705 0.30301,-8.6188 -0.58237,-2.35757 -2.06491,-4.39291 -4.13129,-5.66851 z m -5.33741,14.27252 c -0.82183,3.07445 -2.02648,5.38029 -3.65239,6.90273 -1.56974,1.49584 -3.66568,2.31027 -5.83258,2.26888 -4.78017,0 -6.35435,-3.05671 -4.724,-9.17161 0.80408,-3.03601 2.03534,-5.32411 3.69672,-6.86724 1.58896,-1.51949 3.71447,-2.35166 5.91388,-2.31323 2.27627,0 3.82828,0.73905 4.62793,2.31323 0.79817,1.57417 0.776,3.82827 -0.0296,6.86724 z"
     fill="#0c2651"
     id="path10"
     style="stroke-width:1.4781" />
  <path
     d="m 382.9587,214.98205 -1.19135,4.43578 c -0.49516,-1.58601 -1.54461,-2.93847 -2.9562,-3.81498 -1.64364,-0.99624 -3.54152,-1.4914 -5.46305,-1.42637 -2.69605,0.006 -5.34481,0.71688 -7.68021,2.06343 -2.54528,1.45741 -4.74469,3.44989 -6.44599,5.83849 -1.86979,2.58372 -3.24147,5.4941 -4.04408,8.58037 -0.83217,2.75074 -1.00806,5.65521 -0.51733,8.48577 0.38135,2.23489 1.57565,4.24953 3.35528,5.65373 1.95996,1.39533 4.33231,2.08708 6.7357,1.96735 2.07378,-0.009 4.12242,-0.45673 6.00996,-1.31699 1.94665,-0.87355 3.67603,-2.16837 5.06249,-3.79132 l -1.22683,4.62793 h 9.145 l 8.34535,-31.30319 z m -4.17711,15.52152 c -0.56315,2.54824 -1.81954,4.89103 -3.63021,6.77117 -0.78191,0.76122 -1.7072,1.36133 -2.72266,1.76485 -1.01397,0.40353 -2.0989,0.60159 -3.19122,0.58533 -2.33539,0 -3.90218,-0.73905 -4.74469,-2.31322 -0.844,-1.57418 -0.85878,-3.76916 -0.0961,-6.65293 0.5868,-2.56894 1.86536,-4.93094 3.69525,-6.82882 0.78487,-0.78635 1.71903,-1.40863 2.74631,-1.83136 1.02875,-0.42274 2.12994,-0.63706 3.24147,-0.62967 2.27775,0 3.81941,0.78782 4.62793,2.36496 0.8573,1.52983 0.87947,3.79871 0.0739,6.7623 z"
     fill="#0c2651"
     id="path12"
     style="stroke-width:1.4781" />
  <path
     d="m 315.9269,223.41461 2.33687,-8.52273 c -0.98589,-0.44638 -2.06195,-0.65627 -3.14244,-0.61341 -2.1122,0.003 -4.18893,0.5469 -6.03212,1.58157 -1.67912,0.92086 -3.13801,2.19646 -4.27319,3.73959 l 1.20613,-4.5895 h -9.13761 l -8.41186,31.30171 h 9.26916 l 4.35448,-16.34186 c 0.50994,-2.1802 1.70425,-4.14164 3.4085,-5.59461 1.75154,-1.36872 3.92878,-2.07821 6.15037,-2.00282 1.48697,-0.007 2.95472,0.35031 4.27171,1.04206 z"
     fill="#0c2651"
     id="path14"
     style="stroke-width:1.4781" />
  <path
     d="m 348.24258,216.30643 c -1.89197,-1.44411 -4.23032,-2.1802 -6.60858,-2.07673 -2.3147,0.003 -4.59393,0.55576 -6.65293,1.61112 -2.06342,1.01398 -3.84158,2.52608 -5.17482,4.39883 l 0.037,-0.21433 1.5594,-5.01962 h -9.09179 l -2.3221,8.70009 c 0,0.0961 -0.0517,0.19954 -0.0739,0.29562 l -9.53522,35.84687 h 9.3135 l 4.81269,-18.06386 c 0.45969,1.5934 1.51949,2.94733 2.9562,3.77655 1.66878,0.95781 3.57109,1.42932 5.49262,1.35985 2.70049,0.007 5.35959,-0.66367 7.73342,-1.95109 2.52607,-1.39237 4.70626,-3.33459 6.37947,-5.68329 1.84024,-2.57042 3.18678,-5.4601 3.9687,-8.52272 0.84547,-2.78918 1.03763,-5.73503 0.56168,-8.60993 -0.38874,-2.28514 -1.57861,-4.35892 -3.35529,-5.84736 z m -6.58641,14.30948 c -0.56907,2.50833 -1.81954,4.81121 -3.61543,6.65292 -1.58896,1.51949 -3.71446,2.3487 -5.91388,2.30584 -2.29105,0 -3.84305,-0.79079 -4.66488,-2.35018 -0.82034,-1.5594 -0.86469,-3.80759 -0.0591,-6.77118 0.57646,-2.56745 1.85649,-4.92502 3.69673,-6.80664 0.78191,-0.76418 1.7072,-1.36577 2.72118,-1.77077 1.01545,-0.40647 2.10038,-0.60897 3.19269,-0.59419 2.21715,0 3.76324,0.82773 4.56881,2.46103 0.80556,1.6333 0.85729,3.94653 0.0739,6.87317 z"
     fill="#0c2651"
     id="path16"
     style="stroke-width:1.4781" />
  <path
     d="m 430.97476,213.96364 h -9.60912 l -1.47958,3.0907 c -0.11825,0.1552 -0.22911,0.31041 -0.36214,0.50256 l -0.1552,0.25127 -11.82775,16.54141 -2.45364,-19.3424 h -9.69929 l 4.93094,29.66841 -10.90394,15.17417 h 9.33715 l 2.69753,-3.85193 c 0.0813,-0.11825 0.1626,-0.21433 0.2365,-0.33996 l 3.15722,-4.50082 0.10347,-0.11825 14.09663,-20.11102 z"
     fill="#0c2651"
     id="path18"
     style="stroke-width:1.4781" />
  <path
     d="m 118.91103,207.48809 -2.80839,10.22992 15.84818,-10.28166 -10.34817,38.86958 h 10.50337 l 15.29538,-57.41381 z"
     fill="#3395ff"
     id="path20"
     style="stroke-width:1.4781" />
  <path
     d="m 101.84194,229.95667 -4.361872,16.34926 h 21.549212 l 8.81834,-33.26019 z"
     fill="#0c2651"
     id="path22"
     style="stroke-width:1.4781" />
  <path
     d="m 13.942031,246.89421 v -40.63886 h 5.024651 v 19.87748 l -0.662484,-0.66219 c 0.625679,-2.20976 1.822053,-3.93913 3.588973,-5.19108 1.76692,-1.25195 3.883558,-1.87719 6.349915,-1.87719 2.466208,0 4.619651,0.58828 6.460181,1.76633 1.840529,1.17804 3.276207,2.85273 4.306886,5.02554 1.067483,2.13437 1.601225,4.65601 1.601225,7.56491 0,2.90742 -0.533742,5.46601 -1.601225,7.67429 -1.030679,2.17133 -2.484685,3.86523 -4.362019,5.08023 -1.84053,1.17804 -3.975644,1.76633 -6.405048,1.76633 -2.466357,0 -4.582995,-0.6075 -6.349915,-1.8225 -1.76692,-1.25047 -2.963294,-2.99906 -3.588973,-5.24429 l 0.607351,-0.66367 v 7.34467 z m 13.2519,-3.69968 c 2.613575,0 4.638128,-0.90164 6.073806,-2.7064 1.43553,-1.84023 2.153295,-4.41656 2.153295,-7.72898 0,-3.23999 -0.717765,-5.74242 -2.153295,-7.51022 -1.435678,-1.80328 -3.460231,-2.70492 -6.073806,-2.70492 -2.65038,0 -4.693409,0.90164 -6.128939,2.70492 -1.435678,1.80328 -2.153443,4.34413 -2.153443,7.6196 0,3.3139 0.717765,5.87249 2.153443,7.67577 1.43553,1.76633 3.478559,2.65023 6.128939,2.65023 z m 18.533444,16.23397 -1.04945,-3.86523 c 1.693901,-0.405 3.111399,-0.88391 4.252491,-1.43672 1.178046,-0.51437 2.153591,-1.19578 2.926637,-2.04273 0.773046,-0.81 1.452972,-1.89492 2.042734,-3.25773 l 1.822496,-4.14016 1.15883,-1.65695 9.88405,-23.90825 h 5.02406 l -12.976234,30.14731 c -0.993283,2.28219 -2.134376,4.10468 -3.423278,5.46601 -1.287425,1.39976 -2.741875,2.44774 -4.361872,3.14835 -1.583044,0.69915 -3.349373,1.21352 -5.300464,1.5461 z M 55.776973,248.44031 43.24269,219.12073 h 5.245775 l 9.773193,23.90825 z"
     fill="#0c2651"
     id="path24"
     style="stroke-width:1.4781" />
</svg>
