<svg width="32" height="32" viewBox="0 0 32 32" fill="none" xmlns="http://www.w3.org/2000/svg">
<path d="M16 32C24.8366 32 32 24.8366 32 16C32 7.16344 24.8366 0 16 0C7.16344 0 0 7.16344 0 16C0 24.8366 7.16344 32 16 32Z" fill="#3987F0"/>
<path fill-rule="evenodd" clip-rule="evenodd" d="M20.7051 8.45806H10.4546C10.2355 8.45806 10.0579 8.63567 10.0579 8.85477V23.6435C10.0579 23.8626 10.2355 24.0402 10.4546 24.0402H20.7051C20.9242 24.0402 21.1018 23.8626 21.1018 23.6435V8.85477C21.1018 8.63567 20.9242 8.45806 20.7051 8.45806ZM10.4546 7.40015C9.65126 7.40015 9 8.0514 9 8.85477V23.6435C9 24.4468 9.65126 25.0981 10.4546 25.0981H20.7051C21.5085 25.0981 22.1598 24.4468 22.1598 23.6435V8.85477C22.1598 8.0514 21.5085 7.40015 20.7051 7.40015H10.4546Z" fill="white" stroke="white" stroke-width="0.5"/>
<path d="M11.5798 14.0491C11.5798 13.7729 11.8335 13.5491 12.1464 13.5491H19.0133C19.3262 13.5491 19.5798 13.7729 19.5798 14.0491C19.5798 14.3252 19.3262 14.5491 19.0133 14.5491H12.1464C11.8335 14.5491 11.5798 14.3252 11.5798 14.0491Z" fill="white" stroke="white" stroke-width="0.5"/>
<path d="M11.5798 17.0491C11.5798 16.7729 11.8335 16.5491 12.1464 16.5491H19.0133C19.3262 16.5491 19.5798 16.7729 19.5798 17.0491C19.5798 17.3252 19.3262 17.5491 19.0133 17.5491H12.1464C11.8335 17.5491 11.5798 17.3252 11.5798 17.0491Z" fill="white" stroke="white" stroke-width="0.5"/>
<path d="M11.5798 20.0491C11.5798 19.7729 11.8335 19.5491 12.1464 19.5491H19.0133C19.3262 19.5491 19.5798 19.7729 19.5798 20.0491C19.5798 20.3252 19.3262 20.5491 19.0133 20.5491H12.1464C11.8335 20.5491 11.5798 20.3252 11.5798 20.0491Z" fill="white" stroke="white" stroke-width="0.5"/>
<circle cx="15.5799" cy="7.98249" r="1.98249" fill="#3987F0" stroke="white" stroke-width="1.5"/>
</svg>
