<svg width="56" height="57" viewBox="0 0 56 57" fill="none" xmlns="http://www.w3.org/2000/svg">
<path d="M27.8754 51.4015C40.7458 51.4015 51.1794 40.9679 51.1794 28.0975C51.1794 15.2271 40.7458 4.79356 27.8754 4.79356C15.005 4.79356 4.57147 15.2271 4.57147 28.0975C4.57147 40.9679 15.005 51.4015 27.8754 51.4015Z" fill="white"/>
<path d="M27.8754 47.4391C17.2105 47.4391 8.53378 38.7624 8.53378 28.0975C8.53378 17.4323 17.2105 8.75586 27.8754 8.75586C38.5403 8.75586 47.217 17.4325 47.217 28.0975C47.217 38.7627 38.5406 47.4391 27.8754 47.4391ZM27.8754 11.9264C18.9586 11.9264 11.7043 19.1807 11.7043 28.0975C11.7043 37.0143 18.9586 44.2685 27.8754 44.2685C36.7922 44.2685 44.0464 37.0143 44.0464 28.0975C44.0464 19.1807 36.7922 11.9264 27.8754 11.9264Z" fill="#7BC8FF"/>
<path d="M34.7373 48.6983C34.8108 49.2621 34.639 49.752 34.2228 50.1685L29.3341 55.0204C29.1136 55.2654 28.8256 55.4738 28.4702 55.6453C28.1149 55.8168 27.7658 55.9272 27.4228 55.9762C27.3983 55.9762 27.3245 55.9825 27.202 55.9946C27.0798 56.0067 26.9204 56.0131 26.7244 56.0131C26.2586 56.0131 25.5052 55.9335 24.4638 55.7741C23.4224 55.6147 22.1481 55.2227 20.6413 54.5978C19.1341 53.9729 17.4249 53.0356 15.5136 51.7858C13.6023 50.5363 11.5682 48.8208 9.41196 46.64C7.69669 44.9492 6.27541 43.3319 5.14813 41.7882C4.02085 40.2444 3.11435 38.8171 2.42807 37.5059C1.74178 36.195 1.22729 35.0063 0.88429 33.9404C0.541292 32.8745 0.308399 31.9557 0.1859 31.1838C0.0634007 30.4119 0.014401 29.8054 0.0389008 29.3644C0.0634007 28.9234 0.0757947 28.6784 0.0757947 28.6294C0.124794 28.2864 0.235188 27.9371 0.406687 27.582C0.578186 27.2266 0.786578 26.9387 1.03158 26.7182L5.9203 21.8294C6.2633 21.4864 6.6553 21.3149 7.09658 21.3149C7.41508 21.3149 7.69697 21.4069 7.94197 21.5905C8.18697 21.7744 8.39536 22.0009 8.56686 22.2704L12.4998 29.7322C12.7203 30.1242 12.7817 30.5531 12.6837 31.0186C12.5857 31.4841 12.3773 31.8764 12.0588 32.1949L10.2576 33.9961C10.2086 34.0451 10.1657 34.1246 10.1291 34.235C10.0922 34.3454 10.074 34.4371 10.074 34.5106C10.172 35.0251 10.3925 35.6133 10.7355 36.2748C11.0295 36.8628 11.4829 37.5797 12.0954 38.4251C12.7079 39.2704 13.5781 40.2444 14.7051 41.3472C15.8079 42.4744 16.7879 43.3504 17.6456 43.9753C18.5031 44.5999 19.2203 45.0596 19.7959 45.3536C20.3718 45.6476 20.8128 45.8254 21.1191 45.8863L21.5786 45.9782C21.6276 45.9782 21.7074 45.9598 21.8175 45.9232C21.9279 45.8863 22.0075 45.8436 22.0565 45.7943L24.1516 43.6625C24.5929 43.2705 25.1074 43.0745 25.6954 43.0745C26.1122 43.0745 26.4428 43.148 26.6878 43.295H26.7244L33.8184 47.4854C34.3332 47.8042 34.6393 48.2083 34.7373 48.6983Z" fill="#143B7F"/>
<path d="M28 34.275L23.85 36.775C23.6667 36.8917 23.475 36.9417 23.275 36.925C23.075 36.9083 22.9 36.8417 22.75 36.725C22.6 36.6083 22.4833 36.4627 22.4 36.288C22.3167 36.1127 22.3 35.9167 22.35 35.7L23.45 30.975L19.775 27.8C19.6083 27.65 19.5043 27.479 19.463 27.287C19.421 27.0957 19.4333 26.9083 19.5 26.725C19.5667 26.5417 19.6667 26.3917 19.8 26.275C19.9333 26.1583 20.1167 26.0833 20.35 26.05L25.2 25.625L27.075 21.175C27.1583 20.975 27.2877 20.825 27.463 20.725C27.6377 20.625 27.8167 20.575 28 20.575C28.1833 20.575 28.3627 20.625 28.538 20.725C28.7127 20.825 28.8417 20.975 28.925 21.175L30.8 25.625L35.65 26.05C35.8833 26.0833 36.0667 26.1583 36.2 26.275C36.3333 26.3917 36.4333 26.5417 36.5 26.725C36.5667 26.9083 36.5793 27.0957 36.538 27.287C36.496 27.479 36.3917 27.65 36.225 27.8L32.55 30.975L33.65 35.7C33.7 35.9167 33.6833 36.1127 33.6 36.288C33.5167 36.4627 33.4 36.6083 33.25 36.725C33.1 36.8417 32.925 36.9083 32.725 36.925C32.525 36.9417 32.3333 36.8917 32.15 36.775L28 34.275Z" fill="#143B7F"/>
</svg>
